# xmcd
#
# Track frame offsets:
#	150
#	12602
#	30885
#	49670
#	63942
#	80460
#	97286
#	110724
#	130926
#	149334
#	164415
#	176131
#
# Disc length: 2899 seconds
#
# Revision: 0
# Processed by: cddbd v1.5.1PL0 Copyright (c) Steve Scherf et al.
# Submitted via: audiograbber 1.82.01
#
DISCID=a70b510c
DTITLE=Generic Blondes - Mean American Dream
DYEAR=1900
DGENRE=Country
TTITLE0=Out Here
TTITLE1=Darkness Makes Me Strong
TTITLE2=Men
TTITLE3=Echo
TTITLE4=Mining Gold
TTITLE5=Cast A Spell
TTITLE6=Paint It White
TTITLE7=Ft. Under
TTITLE8=Mean American Dream
TTITLE9=Degas Lovers
TTITLE10=Woot - Woot
TTITLE11=Wake Up Call
EXTD=
EXTT0=
EXTT1=
EXTT2=
EXTT3=
EXTT4=
EXTT5=
EXTT6=
EXTT7=
EXTT8=
EXTT9=
EXTT10=
EXTT11=
PLAYORDER=
